<mxfile host="Electron" agent="Mozilla/5.0 (Windows NT 10.0; Win64; x64) AppleWebKit/537.36 (KHTML, like Gecko) draw.io/25.0.1 Chrome/128.0.6613.186 Electron/32.2.6 Safari/537.36" version="25.0.1">
  <diagram name="Page-1" id="qsm-ALfyS8Sv5nFWUp19">
    <mxGraphModel dx="1767" dy="894" grid="1" gridSize="10" guides="1" tooltips="1" connect="1" arrows="1" fold="1" page="1" pageScale="1" pageWidth="850" pageHeight="1100" math="0" shadow="0">
      <root>
        <mxCell id="0" />
        <mxCell id="1" parent="0" />
        <mxCell id="4JIQUmfBRDZcBKCYuM2q-4" value="" style="shape=ext;double=1;rounded=0;whiteSpace=wrap;html=1;" parent="1" vertex="1">
          <mxGeometry x="440" y="40" width="380" height="400" as="geometry" />
        </mxCell>
        <mxCell id="4JIQUmfBRDZcBKCYuM2q-47" style="edgeStyle=orthogonalEdgeStyle;rounded=0;orthogonalLoop=1;jettySize=auto;html=1;" parent="1" source="4JIQUmfBRDZcBKCYuM2q-2" edge="1">
          <mxGeometry relative="1" as="geometry">
            <mxPoint x="390" y="70" as="targetPoint" />
          </mxGeometry>
        </mxCell>
        <mxCell id="4JIQUmfBRDZcBKCYuM2q-2" value="&lt;h3&gt;User logs in&lt;/h3&gt;" style="strokeWidth=2;html=1;shape=mxgraph.flowchart.terminator;whiteSpace=wrap;fillColor=#a0522d;fontColor=#ffffff;strokeColor=#6D1F00;" parent="1" vertex="1">
          <mxGeometry x="40" y="40" width="120" height="60" as="geometry" />
        </mxCell>
        <mxCell id="4JIQUmfBRDZcBKCYuM2q-3" value="Correct credentials?" style="html=1;whiteSpace=wrap;aspect=fixed;shape=isoRectangle;fillColor=#0050ef;fontColor=#ffffff;strokeColor=#001DBC;" parent="1" vertex="1">
          <mxGeometry x="240" y="25" width="150" height="90" as="geometry" />
        </mxCell>
        <mxCell id="4JIQUmfBRDZcBKCYuM2q-5" value="Calculate balance" style="shape=ext;double=1;rounded=0;whiteSpace=wrap;html=1;fillColor=#008a00;fontColor=#ffffff;strokeColor=#005700;" parent="1" vertex="1">
          <mxGeometry x="460" y="60" width="120" height="80" as="geometry" />
        </mxCell>
        <mxCell id="4JIQUmfBRDZcBKCYuM2q-6" value="Calculate summary" style="shape=ext;double=1;rounded=0;whiteSpace=wrap;html=1;fillColor=#008a00;fontColor=#ffffff;strokeColor=#005700;" parent="1" vertex="1">
          <mxGeometry x="460" y="150" width="120" height="80" as="geometry" />
        </mxCell>
        <mxCell id="4JIQUmfBRDZcBKCYuM2q-7" value="Display movements" style="shape=ext;double=1;rounded=0;whiteSpace=wrap;html=1;fillColor=#008a00;fontColor=#ffffff;strokeColor=#005700;" parent="1" vertex="1">
          <mxGeometry x="460" y="240" width="120" height="80" as="geometry" />
        </mxCell>
        <mxCell id="4JIQUmfBRDZcBKCYuM2q-8" value="Start/restart&lt;div&gt;logout timer&lt;/div&gt;" style="shape=ext;double=1;rounded=0;whiteSpace=wrap;html=1;fillColor=#008a00;fontColor=#ffffff;strokeColor=#005700;" parent="1" vertex="1">
          <mxGeometry x="460" y="330" width="120" height="80" as="geometry" />
        </mxCell>
        <mxCell id="4JIQUmfBRDZcBKCYuM2q-9" value="Display balance" style="shape=ext;double=1;rounded=0;whiteSpace=wrap;html=1;fillColor=#008a00;fontColor=#ffffff;strokeColor=#005700;" parent="1" vertex="1">
          <mxGeometry x="658" y="60" width="140" height="80" as="geometry" />
        </mxCell>
        <mxCell id="4JIQUmfBRDZcBKCYuM2q-10" value="Display summary" style="shape=ext;double=1;rounded=0;whiteSpace=wrap;html=1;fillColor=#008a00;fontColor=#ffffff;strokeColor=#005700;" parent="1" vertex="1">
          <mxGeometry x="660" y="170" width="140" height="80" as="geometry" />
        </mxCell>
        <mxCell id="4JIQUmfBRDZcBKCYuM2q-11" value="display UI &amp;amp; welcome message" style="shape=ext;double=1;rounded=0;whiteSpace=wrap;html=1;fillColor=#008a00;fontColor=#ffffff;strokeColor=#005700;" parent="1" vertex="1">
          <mxGeometry x="245" y="160" width="140" height="80" as="geometry" />
        </mxCell>
        <mxCell id="4JIQUmfBRDZcBKCYuM2q-12" value="&lt;h3&gt;&lt;span style=&quot;background-color: initial; font-size: 12px; font-weight: normal; line-height: 30%;&quot;&gt;&lt;span style=&quot;background-color: initial;&quot;&gt;User transfers&lt;/span&gt;&lt;/span&gt;&lt;/h3&gt;&lt;h3&gt;&lt;span style=&quot;background-color: initial; font-size: 12px; font-weight: normal;&quot;&gt;money&lt;/span&gt;&lt;/h3&gt;" style="strokeWidth=2;html=1;shape=mxgraph.flowchart.terminator;whiteSpace=wrap;fillColor=#a0522d;fontColor=#ffffff;strokeColor=#6D1F00;" parent="1" vertex="1">
          <mxGeometry x="40" y="500" width="120" height="60" as="geometry" />
        </mxCell>
        <mxCell id="4JIQUmfBRDZcBKCYuM2q-13" value="&lt;h3&gt;User requests loan&lt;/h3&gt;" style="strokeWidth=2;html=1;shape=mxgraph.flowchart.terminator;whiteSpace=wrap;fillColor=#a0522d;fontColor=#ffffff;strokeColor=#6D1F00;" parent="1" vertex="1">
          <mxGeometry x="40" y="610" width="120" height="60" as="geometry" />
        </mxCell>
        <mxCell id="4JIQUmfBRDZcBKCYuM2q-14" value="&lt;h3&gt;User closes account&lt;/h3&gt;" style="strokeWidth=2;html=1;shape=mxgraph.flowchart.terminator;whiteSpace=wrap;fillColor=#a0522d;fontColor=#ffffff;strokeColor=#6D1F00;" parent="1" vertex="1">
          <mxGeometry x="40" y="730" width="120" height="60" as="geometry" />
        </mxCell>
        <mxCell id="4JIQUmfBRDZcBKCYuM2q-15" value="Any deposit &amp;gt; 10% of request?" style="html=1;whiteSpace=wrap;aspect=fixed;shape=isoRectangle;fillColor=#0050ef;fontColor=#ffffff;strokeColor=#001DBC;" parent="1" vertex="1">
          <mxGeometry x="230" y="600" width="150" height="90" as="geometry" />
        </mxCell>
        <mxCell id="4JIQUmfBRDZcBKCYuM2q-16" value="Correct credentials?" style="html=1;whiteSpace=wrap;aspect=fixed;shape=isoRectangle;fillColor=#0050ef;fontColor=#ffffff;strokeColor=#001DBC;" parent="1" vertex="1">
          <mxGeometry x="230" y="715" width="150" height="90" as="geometry" />
        </mxCell>
        <mxCell id="4JIQUmfBRDZcBKCYuM2q-17" value="Already sorted?" style="html=1;whiteSpace=wrap;aspect=fixed;shape=isoRectangle;fillColor=#0050ef;fontColor=#ffffff;strokeColor=#001DBC;" parent="1" vertex="1">
          <mxGeometry x="850" y="595" width="150" height="90" as="geometry" />
        </mxCell>
        <mxCell id="4JIQUmfBRDZcBKCYuM2q-18" value="&lt;h3&gt;User sorts movements&lt;/h3&gt;" style="strokeWidth=2;html=1;shape=mxgraph.flowchart.terminator;whiteSpace=wrap;fillColor=#a0522d;fontColor=#ffffff;strokeColor=#6D1F00;" parent="1" vertex="1">
          <mxGeometry x="660" y="610" width="120" height="60" as="geometry" />
        </mxCell>
        <mxCell id="4JIQUmfBRDZcBKCYuM2q-19" value="&lt;h3&gt;Logout timer expires&lt;/h3&gt;" style="strokeWidth=2;html=1;shape=mxgraph.flowchart.terminator;whiteSpace=wrap;fillColor=#a0522d;fontColor=#ffffff;strokeColor=#6D1F00;" parent="1" vertex="1">
          <mxGeometry x="865" y="730" width="120" height="60" as="geometry" />
        </mxCell>
        <mxCell id="4JIQUmfBRDZcBKCYuM2q-20" value="Add positive movement to current user" style="shape=ext;double=1;rounded=0;whiteSpace=wrap;html=1;fillColor=#008a00;fontColor=#ffffff;strokeColor=#005700;" parent="1" vertex="1">
          <mxGeometry x="460" y="600" width="120" height="80" as="geometry" />
        </mxCell>
        <mxCell id="4JIQUmfBRDZcBKCYuM2q-21" value="Delete user from data" style="shape=ext;double=1;rounded=0;whiteSpace=wrap;html=1;fillColor=#008a00;fontColor=#ffffff;strokeColor=#005700;" parent="1" vertex="1">
          <mxGeometry x="460" y="720" width="120" height="80" as="geometry" />
        </mxCell>
        <mxCell id="4JIQUmfBRDZcBKCYuM2q-22" value="Add positive movement to recipient" style="shape=ext;double=1;rounded=0;whiteSpace=wrap;html=1;fillColor=#008a00;fontColor=#ffffff;strokeColor=#005700;" parent="1" vertex="1">
          <mxGeometry x="460" y="490" width="120" height="80" as="geometry" />
        </mxCell>
        <mxCell id="4JIQUmfBRDZcBKCYuM2q-23" value="Add negative movement to current user" style="shape=ext;double=1;rounded=0;whiteSpace=wrap;html=1;fillColor=#008a00;fontColor=#ffffff;strokeColor=#005700;" parent="1" vertex="1">
          <mxGeometry x="255" y="490" width="120" height="80" as="geometry" />
        </mxCell>
        <mxCell id="4JIQUmfBRDZcBKCYuM2q-24" value="Logout timer expires" style="shape=ext;double=1;rounded=0;whiteSpace=wrap;html=1;fillColor=#008a00;fontColor=#ffffff;strokeColor=#005700;" parent="1" vertex="1">
          <mxGeometry x="660" y="720" width="120" height="80" as="geometry" />
        </mxCell>
        <mxCell id="4JIQUmfBRDZcBKCYuM2q-25" value="Sort movements" style="shape=ext;double=1;rounded=0;whiteSpace=wrap;html=1;fillColor=#008a00;fontColor=#ffffff;strokeColor=#005700;" parent="1" vertex="1">
          <mxGeometry x="865" y="470" width="120" height="80" as="geometry" />
        </mxCell>
        <mxCell id="4JIQUmfBRDZcBKCYuM2q-26" value="Update UI" style="shape=ext;double=1;rounded=0;whiteSpace=wrap;html=1;strokeColor=#3700CC;fillColor=#6a00ff;fontColor=#ffffff;" parent="1" vertex="1">
          <mxGeometry x="658" y="360" width="140" height="50" as="geometry" />
        </mxCell>
        <mxCell id="4JIQUmfBRDZcBKCYuM2q-27" value="" style="html=1;shadow=0;dashed=0;align=center;verticalAlign=middle;shape=mxgraph.arrows2.arrow;dy=0.67;dx=20;notch=0;" parent="1" vertex="1">
          <mxGeometry x="380" y="750" width="80" height="20" as="geometry" />
        </mxCell>
        <mxCell id="4JIQUmfBRDZcBKCYuM2q-28" value="" style="html=1;shadow=0;dashed=0;align=center;verticalAlign=middle;shape=mxgraph.arrows2.arrow;dy=0.67;dx=20;notch=0;" parent="1" vertex="1">
          <mxGeometry x="160" y="750" width="70" height="20" as="geometry" />
        </mxCell>
        <mxCell id="4JIQUmfBRDZcBKCYuM2q-29" value="" style="html=1;shadow=0;dashed=0;align=center;verticalAlign=middle;shape=mxgraph.arrows2.arrow;dy=0.67;dx=20;notch=0;" parent="1" vertex="1">
          <mxGeometry x="160" y="635" width="70" height="20" as="geometry" />
        </mxCell>
        <mxCell id="4JIQUmfBRDZcBKCYuM2q-30" value="" style="html=1;shadow=0;dashed=0;align=center;verticalAlign=middle;shape=mxgraph.arrows2.arrow;dy=0.67;dx=20;notch=0;" parent="1" vertex="1">
          <mxGeometry x="380" y="635" width="80" height="20" as="geometry" />
        </mxCell>
        <mxCell id="4JIQUmfBRDZcBKCYuM2q-31" value="" style="html=1;shadow=0;dashed=0;align=center;verticalAlign=middle;shape=mxgraph.arrows2.arrow;dy=0.67;dx=20;notch=0;" parent="1" vertex="1">
          <mxGeometry x="380" y="520" width="80" height="20" as="geometry" />
        </mxCell>
        <mxCell id="4JIQUmfBRDZcBKCYuM2q-33" value="" style="html=1;shadow=0;dashed=0;align=center;verticalAlign=middle;shape=mxgraph.arrows2.arrow;dy=0.67;dx=20;notch=0;" parent="1" vertex="1">
          <mxGeometry x="160" y="520" width="90" height="20" as="geometry" />
        </mxCell>
        <mxCell id="4JIQUmfBRDZcBKCYuM2q-35" value="" style="endArrow=classic;html=1;rounded=0;exitX=1;exitY=0.5;exitDx=0;exitDy=0;" parent="1" source="4JIQUmfBRDZcBKCYuM2q-22" edge="1">
          <mxGeometry width="50" height="50" relative="1" as="geometry">
            <mxPoint x="720" y="530" as="sourcePoint" />
            <mxPoint x="620" y="441" as="targetPoint" />
            <Array as="points">
              <mxPoint x="620" y="530" />
            </Array>
          </mxGeometry>
        </mxCell>
        <mxCell id="4JIQUmfBRDZcBKCYuM2q-36" value="" style="endArrow=classic;html=1;rounded=0;exitX=1;exitY=0.5;exitDx=0;exitDy=0;entryX=0.551;entryY=1.009;entryDx=0;entryDy=0;entryPerimeter=0;" parent="1" source="4JIQUmfBRDZcBKCYuM2q-20" target="4JIQUmfBRDZcBKCYuM2q-4" edge="1">
          <mxGeometry width="50" height="50" relative="1" as="geometry">
            <mxPoint x="590" y="540" as="sourcePoint" />
            <mxPoint x="649" y="454" as="targetPoint" />
            <Array as="points">
              <mxPoint x="649" y="640" />
            </Array>
          </mxGeometry>
        </mxCell>
        <mxCell id="4JIQUmfBRDZcBKCYuM2q-37" value="" style="endArrow=classic;html=1;rounded=0;entryX=0;entryY=0.487;entryDx=0;entryDy=0;entryPerimeter=0;" parent="1" target="4JIQUmfBRDZcBKCYuM2q-17" edge="1">
          <mxGeometry width="50" height="50" relative="1" as="geometry">
            <mxPoint x="780" y="639" as="sourcePoint" />
            <mxPoint x="500" y="610" as="targetPoint" />
          </mxGeometry>
        </mxCell>
        <mxCell id="4JIQUmfBRDZcBKCYuM2q-38" value="" style="endArrow=classic;html=1;rounded=0;entryX=0;entryY=0.5;entryDx=0;entryDy=0;exitX=1;exitY=0.5;exitDx=0;exitDy=0;" parent="1" source="4JIQUmfBRDZcBKCYuM2q-21" target="4JIQUmfBRDZcBKCYuM2q-24" edge="1">
          <mxGeometry width="50" height="50" relative="1" as="geometry">
            <mxPoint x="450" y="660" as="sourcePoint" />
            <mxPoint x="500" y="610" as="targetPoint" />
          </mxGeometry>
        </mxCell>
        <mxCell id="4JIQUmfBRDZcBKCYuM2q-39" value="" style="endArrow=classic;html=1;rounded=0;entryX=1;entryY=0.5;entryDx=0;entryDy=0;" parent="1" target="4JIQUmfBRDZcBKCYuM2q-24" edge="1">
          <mxGeometry width="50" height="50" relative="1" as="geometry">
            <mxPoint x="860" y="760" as="sourcePoint" />
            <mxPoint x="830" y="720" as="targetPoint" />
          </mxGeometry>
        </mxCell>
        <mxCell id="4JIQUmfBRDZcBKCYuM2q-40" value="" style="endArrow=classic;html=1;rounded=0;exitX=1.019;exitY=0.496;exitDx=0;exitDy=0;exitPerimeter=0;entryX=1;entryY=0.5;entryDx=0;entryDy=0;" parent="1" source="4JIQUmfBRDZcBKCYuM2q-17" target="4JIQUmfBRDZcBKCYuM2q-7" edge="1">
          <mxGeometry width="50" height="50" relative="1" as="geometry">
            <mxPoint x="1150" y="620" as="sourcePoint" />
            <mxPoint x="1080" y="160" as="targetPoint" />
            <Array as="points">
              <mxPoint x="1080" y="640" />
              <mxPoint x="1080" y="280" />
            </Array>
          </mxGeometry>
        </mxCell>
        <mxCell id="4JIQUmfBRDZcBKCYuM2q-41" value="" style="endArrow=classic;html=1;rounded=0;entryX=0.5;entryY=1;entryDx=0;entryDy=0;" parent="1" target="4JIQUmfBRDZcBKCYuM2q-25" edge="1">
          <mxGeometry width="50" height="50" relative="1" as="geometry">
            <mxPoint x="925" y="595" as="sourcePoint" />
            <mxPoint x="926" y="560" as="targetPoint" />
          </mxGeometry>
        </mxCell>
        <mxCell id="4JIQUmfBRDZcBKCYuM2q-42" value="" style="endArrow=none;html=1;rounded=0;exitX=0.448;exitY=-0.02;exitDx=0;exitDy=0;exitPerimeter=0;" parent="1" source="4JIQUmfBRDZcBKCYuM2q-25" edge="1">
          <mxGeometry width="50" height="50" relative="1" as="geometry">
            <mxPoint x="890" y="460" as="sourcePoint" />
            <mxPoint x="920" y="280" as="targetPoint" />
          </mxGeometry>
        </mxCell>
        <mxCell id="4JIQUmfBRDZcBKCYuM2q-43" value="" style="endArrow=classic;html=1;rounded=0;entryX=0;entryY=0.5;entryDx=0;entryDy=0;exitX=1;exitY=0.5;exitDx=0;exitDy=0;" parent="1" source="4JIQUmfBRDZcBKCYuM2q-5" target="4JIQUmfBRDZcBKCYuM2q-9" edge="1">
          <mxGeometry width="50" height="50" relative="1" as="geometry">
            <mxPoint x="400" y="260" as="sourcePoint" />
            <mxPoint x="450" y="210" as="targetPoint" />
          </mxGeometry>
        </mxCell>
        <mxCell id="4JIQUmfBRDZcBKCYuM2q-44" value="" style="endArrow=classic;html=1;rounded=0;entryX=0;entryY=0.25;entryDx=0;entryDy=0;exitX=1;exitY=0.5;exitDx=0;exitDy=0;" parent="1" source="4JIQUmfBRDZcBKCYuM2q-6" target="4JIQUmfBRDZcBKCYuM2q-10" edge="1">
          <mxGeometry width="50" height="50" relative="1" as="geometry">
            <mxPoint x="590" y="110" as="sourcePoint" />
            <mxPoint x="668" y="110" as="targetPoint" />
          </mxGeometry>
        </mxCell>
        <mxCell id="4JIQUmfBRDZcBKCYuM2q-45" value="" style="endArrow=classic;html=1;rounded=0;exitX=1;exitY=0.5;exitDx=0;exitDy=0;exitPerimeter=0;" parent="1" source="4JIQUmfBRDZcBKCYuM2q-2" edge="1">
          <mxGeometry width="50" height="50" relative="1" as="geometry">
            <mxPoint x="590" y="110" as="sourcePoint" />
            <mxPoint x="240" y="69" as="targetPoint" />
          </mxGeometry>
        </mxCell>
        <mxCell id="4JIQUmfBRDZcBKCYuM2q-48" value="" style="endArrow=classic;startArrow=classic;html=1;rounded=0;entryX=0.5;entryY=0;entryDx=0;entryDy=0;exitX=0;exitY=0.075;exitDx=0;exitDy=0;exitPerimeter=0;" parent="1" source="4JIQUmfBRDZcBKCYuM2q-4" target="4JIQUmfBRDZcBKCYuM2q-11" edge="1">
          <mxGeometry width="50" height="50" relative="1" as="geometry">
            <mxPoint x="320" y="120" as="sourcePoint" />
            <mxPoint x="450" y="210" as="targetPoint" />
            <Array as="points">
              <mxPoint x="390" y="70" />
              <mxPoint x="390" y="120" />
              <mxPoint x="315" y="120" />
            </Array>
          </mxGeometry>
        </mxCell>
        <mxCell id="4JIQUmfBRDZcBKCYuM2q-49" value="&lt;h3&gt;YES&lt;/h3&gt;" style="text;html=1;align=center;verticalAlign=middle;resizable=0;points=[];autosize=1;strokeColor=none;fillColor=none;" parent="1" vertex="1">
          <mxGeometry x="385" y="63" width="50" height="60" as="geometry" />
        </mxCell>
        <mxCell id="4JIQUmfBRDZcBKCYuM2q-50" value="YES" style="text;html=1;align=center;verticalAlign=middle;resizable=0;points=[];autosize=1;strokeColor=none;fillColor=none;" parent="1" vertex="1">
          <mxGeometry x="385" y="608" width="50" height="30" as="geometry" />
        </mxCell>
        <mxCell id="4JIQUmfBRDZcBKCYuM2q-51" value="YES" style="text;html=1;align=center;verticalAlign=middle;resizable=0;points=[];autosize=1;strokeColor=none;fillColor=none;" parent="1" vertex="1">
          <mxGeometry x="385" y="728" width="50" height="30" as="geometry" />
        </mxCell>
        <mxCell id="4JIQUmfBRDZcBKCYuM2q-52" value="NO" style="text;html=1;align=center;verticalAlign=middle;resizable=0;points=[];autosize=1;strokeColor=none;fillColor=none;" parent="1" vertex="1">
          <mxGeometry x="920" y="560" width="40" height="30" as="geometry" />
        </mxCell>
        <mxCell id="4JIQUmfBRDZcBKCYuM2q-53" value="YES" style="text;html=1;align=center;verticalAlign=middle;resizable=0;points=[];autosize=1;strokeColor=none;fillColor=none;" parent="1" vertex="1">
          <mxGeometry x="995" y="598" width="50" height="30" as="geometry" />
        </mxCell>
      </root>
    </mxGraphModel>
  </diagram>
</mxfile>
